HIERARCHY
ROOT Hip
{
	OFFSET 0.000000 -0.002531 0.000390
	CHANNELS 6 Xposition Yposition Zposition Zrotation Yrotation Xrotation
	JOINT Abdomen
	{
		OFFSET 0.000000 0.003174 0.230174
		CHANNELS 6 Xposition Yposition Zposition Zrotation Xrotation Yrotation
		JOINT Chest
		{
			OFFSET 0.000000 0.002616 0.130239
			CHANNELS 6 Xposition Yposition Zposition Zrotation Xrotation Yrotation
			JOINT Neck
			{
				OFFSET 0.000000 0.019080 0.247215
				CHANNELS 6 Xposition Yposition Zposition Zrotation Xrotation Yrotation
				JOINT Head
				{
					OFFSET -0.002712 -0.015249 0.078323
					CHANNELS 6 Xposition Yposition Zposition Zrotation Xrotation Yrotation
					End Site
					{
						OFFSET 0.011120 0.000000 0.000000
					}
				}
			}
			JOINT RightShoulder
			{
				OFFSET -0.029827 0.049600 0.215328
				CHANNELS 6 Xposition Yposition Zposition Zrotation Xrotation Yrotation
				JOINT RightArm
				{
					OFFSET -0.097614 -0.015798 -0.022038
					CHANNELS 6 Xposition Yposition Zposition Zrotation Xrotation Yrotation
					JOINT RightForeArm
					{
						OFFSET -0.313297 -0.005011 -0.019144
						CHANNELS 6 Xposition Yposition Zposition Zrotation Xrotation Yrotation
						JOINT RHand
						{
							OFFSET -0.251177 -0.078801 0.006901
							CHANNELS 6 Xposition Yposition Zposition Zrotation Xrotation Yrotation
							End Site
							{
								OFFSET -0.019824 -0.015620 -0.013485
							}
						}
					}
				}
			}
			JOINT LeftShoulder
			{
				OFFSET 0.029827 0.049600 0.215328
				CHANNELS 6 Xposition Yposition Zposition Zrotation Xrotation Yrotation
				JOINT LeftArm
				{
					OFFSET 0.097614 -0.015798 -0.022038
					CHANNELS 6 Xposition Yposition Zposition Zrotation Xrotation Yrotation
					JOINT LeftForeArm
					{
						OFFSET 0.313297 -0.005011 -0.019144
						CHANNELS 6 Xposition Yposition Zposition Zrotation Xrotation Yrotation
						JOINT LHand
						{
							OFFSET 0.251177 -0.078801 0.006901
							CHANNELS 6 Xposition Yposition Zposition Zrotation Xrotation Yrotation
							End Site
							{
								OFFSET 0.019824 -0.015620 -0.013485
							}
						}
					}
				}
			}
		}
	}
	JOINT RHipJoint
	{
		OFFSET -0.097614 -0.014598 0.048078
		CHANNELS 6 Xposition Yposition Zposition Zrotation Xrotation Yrotation
		JOINT RightUpLeg
		{
			OFFSET 0.000000 0.024807 -0.018450
			CHANNELS 6 Xposition Yposition Zposition Zrotation Xrotation Yrotation
			JOINT RightLeg
			{
				OFFSET 0.000000 0.000693 -0.409517
				CHANNELS 6 Xposition Yposition Zposition Zrotation Xrotation Yrotation
				JOINT RightFoot
				{
					OFFSET 0.008134 0.067741 -0.500284
					CHANNELS 6 Xposition Yposition Zposition Zrotation Xrotation Yrotation
					End Site
					{
						OFFSET -0.012478 -0.133667 -0.044032
					}
				}
			}
		}
	}
	JOINT LHipJoint
	{
		OFFSET 0.097614 -0.014598 0.048078
		CHANNELS 6 Xposition Yposition Zposition Zrotation Xrotation Yrotation
		JOINT LeftUpLeg
		{
			OFFSET 0.000000 0.024807 -0.018450
			CHANNELS 6 Xposition Yposition Zposition Zrotation Xrotation Yrotation
			JOINT LeftLeg
			{
				OFFSET 0.000000 0.000693 -0.409517
				CHANNELS 6 Xposition Yposition Zposition Zrotation Xrotation Yrotation
				JOINT LeftFoot
				{
					OFFSET -0.008134 0.067741 -0.500284
					CHANNELS 6 Xposition Yposition Zposition Zrotation Xrotation Yrotation
					End Site
					{
						OFFSET 0.012478 -0.133667 -0.044032
					}
				}
			}
		}
	}
}
MOTION
Frames: 4
Frame Time: 0.041667
0.011210 -2.264483 0.877388 -7.557679 7.131001 10.573238 0.000000 0.003173 0.230174 4.083135 -0.242217 -3.489203 0.000000 0.002616 0.130239 9.452275 -1.329460 -8.051986 0.000000 0.019079 0.247215 -4.544545 -5.228182 14.154262 -0.002712 -0.015249 0.078322 -8.360543 -7.590258 -20.780910 -0.029827 0.049600 0.215328 -0.000001 0.000002 0.000000 -0.097614 -0.015798 -0.022038 65.576831 3.920955 -46.314854 -0.313297 -0.005012 -0.019145 40.621679 2.568323 23.653802 -0.251177 -0.078801 0.006901 -3.299165 -21.343967 -0.435895 0.029827 0.049600 0.215328 -0.000002 -0.000001 -0.000002 0.097614 -0.015798 -0.022038 -1.825460 34.284230 78.160764 0.313297 -0.005012 -0.019145 -11.759881 -1.012424 -6.914640 0.251178 -0.078800 0.006901 -3.306299 20.955212 0.796658 -0.097614 -0.014598 0.048079 -0.000001 -0.000001 -0.000000 -0.000000 0.024806 -0.018449 7.034633 10.047015 -9.967107 0.000000 0.000693 -0.409517 0.491590 6.535130 -0.110657 0.008134 0.067741 -0.500284 0.865300 -5.120571 0.486633 0.097614 -0.014598 0.048079 -0.000001 -0.000001 -0.000000 -0.000000 0.024807 -0.018450 -8.661961 -49.728869 -16.477826 -0.000000 0.000692 -0.409517 -0.808673 20.759715 0.247007 -0.008135 0.067741 -0.500284 9.236343 -13.732573 -1.324889 
0.012284 -2.282743 0.873960 -7.534780 7.097056 10.534969 0.000000 0.003173 0.230174 4.179023 -0.351475 -3.543978 0.000000 0.002616 0.130239 9.653812 -1.612383 -8.151607 -0.000000 0.019079 0.247215 -4.625124 -5.326547 14.147192 -0.002711 -0.015250 0.078322 -8.476313 -7.213820 -20.525897 -0.029827 0.049600 0.215328 -0.000000 0.000001 0.000002 -0.097614 -0.015798 -0.022038 65.640556 3.844222 -45.852487 -0.313297 -0.005012 -0.019144 40.815380 2.620851 23.761455 -0.251177 -0.078801 0.006901 -3.309669 -21.406206 -0.439235 0.029827 0.049600 0.215328 -0.000001 -0.000001 -0.000002 0.097614 -0.015797 -0.022038 2.086965 34.672728 75.744592 0.313297 -0.005011 -0.019144 -11.351167 -1.001546 -6.672843 0.251177 -0.078800 0.006901 -3.738813 23.384216 0.978373 -0.097614 -0.014598 0.048078 0.000001 0.000010 0.000000 -0.000000 0.024807 -0.018449 7.282209 11.065555 -10.024022 0.000000 0.000693 -0.409517 0.510947 6.313628 -0.115716 0.008135 0.067741 -0.500284 0.955291 -4.102084 0.485330 0.097614 -0.014598 0.048078 0.000001 0.000010 0.000000 -0.000000 0.024808 -0.018449 -6.961953 -50.660292 -15.561710 0.000000 0.000692 -0.409517 -0.872409 22.419812 0.285970 -0.008135 0.067740 -0.500284 7.369270 -13.630803 -1.158591 
0.012610 -2.301509 0.870148 -7.497516 7.448848 10.626486 0.000000 0.003173 0.230174 4.259817 -0.462377 -3.594379 0.000000 0.002616 0.130239 9.819561 -1.895655 -8.240184 0.000000 0.019080 0.247215 -4.735537 -5.386244 14.145941 -0.002712 -0.015249 0.078322 -8.629946 -6.926177 -20.583279 -0.029827 0.049600 0.215328 -0.000003 0.000003 0.000001 -0.097614 -0.015797 -0.022038 65.646908 3.792965 -45.462579 -0.313297 -0.005012 -0.019144 40.972655 2.664145 23.847846 -0.251177 -0.078801 0.006901 -3.328324 -21.517003 -0.445209 0.029827 0.049600 0.215328 0.000000 -0.000003 -0.000001 0.097614 -0.015798 -0.022038 6.043326 34.798554 73.239572 0.313297 -0.005011 -0.019145 -10.952408 -0.988928 -6.436679 0.251177 -0.078800 0.006901 -4.195030 25.854861 1.189889 -0.097614 -0.014598 0.048078 0.000000 0.000008 -0.000001 -0.000000 0.024807 -0.018450 7.424100 11.995031 -10.054848 -0.000000 0.000693 -0.409517 0.538125 6.205520 -0.123111 0.008135 0.067742 -0.500284 0.956950 -2.968529 0.489224 0.097614 -0.014598 0.048078 0.000000 0.000008 -0.000001 -0.000000 0.024808 -0.018450 -5.715367 -51.620849 -14.859736 0.000000 0.000694 -0.409517 -0.932794 24.264604 0.326133 -0.008135 0.067740 -0.500284 6.252630 -12.129403 -1.160478 
0.013739 -2.320720 0.865572 -7.485242 7.663308 10.833393 -0.000000 0.003174 0.230174 4.326098 -0.573101 -3.658236 -0.000000 0.002617 0.130239 9.950376 -2.179230 -8.359822 0.000000 0.019079 0.247215 -4.863385 -5.413013 14.301848 -0.002711 -0.015250 0.078322 -8.867787 -6.880514 -20.691110 -0.029827 0.049600 0.215328 -0.000002 0.000003 0.000001 -0.097614 -0.015798 -0.022038 65.602936 3.755815 -45.088678 -0.313297 -0.005012 -0.019144 41.081962 2.694849 23.907172 -0.251177 -0.078801 0.006901 -3.365656 -21.738004 -0.457186 0.029826 0.049600 0.215328 -0.000000 -0.000002 -0.000001 0.097614 -0.015798 -0.022038 10.121885 34.608910 70.612647 0.313297 -0.005012 -0.019144 -10.560959 -0.974850 -6.204787 0.251178 -0.078800 0.006901 -4.696906 28.450221 1.446581 -0.097614 -0.014597 0.048078 -0.000000 0.000001 -0.000000 0.000000 0.024808 -0.018449 7.405688 12.891413 -10.108685 0.000000 0.000693 -0.409517 0.576458 6.069017 -0.131607 0.008134 0.067742 -0.500284 0.910584 -1.741752 0.491478 0.097614 -0.014598 0.048078 -0.000000 0.000001 -0.000000 0.000000 0.024807 -0.018449 -5.211092 -52.689845 -14.582018 -0.000000 0.000692 -0.409517 -0.990891 26.366822 0.372776 -0.008135 0.067740 -0.500284 4.991775 -10.470547 -0.952436 
